<svg xmlns="http://www.w3.org/2000/svg" xmlns:xlink="http://www.w3.org/1999/xlink" viewBox="0 0 396 152" data-background-color="#ffffff" preserveAspectRatio="xMidYMid meet" height="767" width="2000"><g id="tight-bounds" transform="matrix(1,0,0,1,0.2400000207781261,-0.0033799363962430107)"><svg viewBox="0 0 395.5199999999999 152.0067598727925" height="152.0067598727925" width="395.5199999999999"><g><svg viewBox="0 0 395.52000000000004 152.00675987279251" height="152.0067598727925" width="395.5199999999999"><g transform="matrix(1,0,0,1,0,111.62979160017207)"><svg viewBox="0 0 395.52000000000004 40.376968272620445" height="40.376968272620445" width="395.52000000000004"><g id="textblocktransform"><svg viewBox="0 0 395.52000000000004 40.376968272620445" height="40.376968272620445" width="395.52000000000004" id="textblock"><g><svg viewBox="0 0 395.52000000000004 40.376968272620445" height="40.376968272620445" width="395.52000000000004"><g transform="matrix(1,0,0,1,0,0)"><svg width="395.52000000000004" viewBox="0.9000000357627869 -34.349998474121094 340.3800048828125 34.75" height="40.376968272620445" data-palette-color="#246a51"><path d="M0.9-33.7L23.15-33.7 23.15-30.15 14.05-30.15 14.05 0 10 0 10-30.15 0.9-30.15 0.9-33.7ZM48.35-18.9L48.35-33.7 52.4-33.7 52.4 0 48.35 0 48.35-15.25 32-15.25 32 0 27.95 0 27.95-33.7 32-33.7 32-18.9 48.35-18.9ZM64.15-15.05L64.15-3.55 78.9-3.55 78.9 0 60.1 0 60.1-33.7 78.65-33.7 78.65-30.15 64.15-30.15 64.15-18.6 76.95-18.6 76.95-15.05 64.15-15.05ZM109.19-32.35L109.19-32.35 109.19-28.2Q106.99-29.35 105.24-29.85 103.49-30.35 100.64-30.35L100.64-30.35Q95.19-30.35 91.57-26.65 87.94-22.95 87.94-17L87.94-17Q87.94-10.8 91.54-7.1 95.14-3.4 101.09-3.4L101.09-3.4Q105.89-3.4 109.29-5.95L109.29-5.95 109.29-1.7Q106.19 0.4 100.79 0.4L100.79 0.4Q93.19 0.4 88.44-4.28 83.69-8.95 83.69-17L83.69-17Q83.69-24.6 88.52-29.38 93.34-34.15 100.64-34.15L100.64-34.15Q105.89-34.15 109.19-32.35ZM113.79-17L113.79-17Q113.79-24.95 117.87-29.65 121.94-34.35 128.89-34.35L128.89-34.35Q135.99-34.35 140.02-29.68 144.04-25 144.04-17L144.04-17Q144.04-9.05 139.97-4.33 135.89 0.4 128.94 0.4L128.94 0.4Q122.09 0.4 117.94-4.35 113.79-9.1 113.79-17ZM118.04-17L118.04-17Q118.04-10.75 121.02-7.1 123.99-3.45 128.94-3.45L128.94-3.45Q134.09-3.45 136.92-7.05 139.74-10.65 139.74-17 139.74-23.35 136.89-26.95 134.04-30.55 128.89-30.55L128.89-30.55Q123.79-30.55 120.92-26.93 118.04-23.3 118.04-17ZM154.34-30.1L154.34-3.55 160.39-3.55Q166.64-3.55 169.84-7.43 173.04-11.3 173.04-17.1L173.04-17.1Q173.04-22.6 169.46-26.35 165.89-30.1 160.19-30.1L160.19-30.1 154.34-30.1ZM150.24 0L150.24-33.7 160.24-33.7Q167.69-33.7 172.46-29.08 177.24-24.45 177.24-17.1L177.24-17.1Q177.24-9.8 172.81-4.9 168.39 0 160.44 0L160.44 0 150.24 0ZM187.34-15.05L187.34-3.55 202.09-3.55 202.09 0 183.29 0 183.29-33.7 201.84-33.7 201.84-30.15 187.34-30.15 187.34-18.6 200.14-18.6 200.14-15.05 187.34-15.05ZM217.03-30.2L212.38-30.2 212.38-16.75 217.48-16.75Q220.93-16.75 222.76-18.63 224.58-20.5 224.58-23.45L224.58-23.45Q224.58-30.2 217.03-30.2L217.03-30.2ZM221.88-13.95L230.73 0 225.88 0 217.63-13.3 217.23-13.3 212.38-13.3 212.38 0 208.33 0 208.33-33.7 216.78-33.7Q222.63-33.7 225.66-30.95 228.68-28.2 228.68-23.35L228.68-23.35Q228.58-19.85 226.83-17.4 225.08-14.95 221.88-13.95L221.88-13.95ZM234.28-17L234.28-17Q234.28-24.95 238.36-29.65 242.43-34.35 249.38-34.35L249.38-34.35Q256.48-34.35 260.51-29.68 264.53-25 264.53-17L264.53-17Q264.53-9.05 260.46-4.33 256.38 0.4 249.43 0.4L249.43 0.4Q242.58 0.4 238.43-4.35 234.28-9.1 234.28-17ZM238.53-17L238.53-17Q238.53-10.75 241.51-7.1 244.48-3.45 249.43-3.45L249.43-3.45Q254.58-3.45 257.41-7.05 260.23-10.65 260.23-17 260.23-23.35 257.38-26.95 254.53-30.55 249.38-30.55L249.38-30.55Q244.28-30.55 241.41-26.93 238.53-23.3 238.53-17ZM269.28-17L269.28-17Q269.28-24.95 273.35-29.65 277.43-34.35 284.38-34.35L284.38-34.35Q291.48-34.35 295.5-29.68 299.53-25 299.53-17L299.53-17Q299.53-9.05 295.45-4.33 291.38 0.4 284.43 0.4L284.43 0.4Q277.58 0.4 273.43-4.35 269.28-9.1 269.28-17ZM273.53-17L273.53-17Q273.53-10.75 276.5-7.1 279.48-3.45 284.43-3.45L284.43-3.45Q289.58-3.45 292.4-7.05 295.23-10.65 295.23-17 295.23-23.35 292.38-26.95 289.53-30.55 284.38-30.55L284.38-30.55Q279.28-30.55 276.4-26.93 273.53-23.3 273.53-17ZM309.43 0L305.38 0 307.83-33.7 312.98-33.7 317.43-21.4 322.83-5.7Q325.73-13.9 328.53-21.4L328.53-21.4 333.18-33.7 338.33-33.7 341.28 0 337.23 0 336.08-13.3 334.88-28.25Q332.23-20.85 329.43-13.3L329.43-13.3 324.73-0.75 320.88-0.75 316.43-13.3 311.33-27.95Q311.33-26 310.38-13.3L310.38-13.3 309.43 0Z" opacity="1" transform="matrix(1,0,0,1,0,0)" fill="#246a51" class="undefined-text-0" data-fill-palette-color="primary" id="text-0"/></svg></g></svg></g></svg></g></svg></g><g transform="matrix(1,0,0,1,151.47713736184113,0)"><svg viewBox="0 0 92.56572527631778 92.56572527631778" height="92.56572527631778" width="92.56572527631778"><g><svg/></g><g id="icon-0"><svg viewBox="0 0 92.56572527631778 92.56572527631778" height="92.56572527631778" width="92.56572527631778"><g><path d="M0 46.283c0-25.561 20.722-46.283 46.283-46.283 25.561 0 46.283 20.722 46.283 46.283 0 25.561-20.722 46.283-46.283 46.283-25.561 0-46.283-20.722-46.283-46.283zM46.283 88.924c23.55 0 42.642-19.091 42.641-42.641 0-23.55-19.091-42.642-42.641-42.642-23.55 0-42.642 19.091-42.642 42.642 0 23.55 19.091 42.642 42.642 42.641z" data-fill-palette-color="accent" fill="#65dab7" stroke="transparent"/><ellipse rx="45.8200340117773" ry="45.8200340117773" cx="46.28286263815889" cy="46.28286263815889" fill="#65dab7" stroke="transparent" stroke-width="0" fill-opacity="1" data-fill-palette-color="accent"/></g><g transform="matrix(1,0,0,1,20.861566392875645,24.77263336326995)"><svg viewBox="0 0 50.84259249056649 43.02045854977788" height="43.02045854977788" width="50.84259249056649"><g><svg xmlns="http://www.w3.org/2000/svg" xmlns:xlink="http://www.w3.org/1999/xlink" version="1.1" x="0" y="0" viewBox="0 13.42199993133545 100 84.61499786376953" enable-background="new 0 0 100 100" xml:space="preserve" height="43.02045854977788" width="50.84259249056649" class="icon-s-0" data-fill-palette-color="quaternary" id="s-0"><g fill="#246a51" data-fill-palette-color="quaternary"><path d="M0 13.422v84.615h100V13.422H0zM92.308 90.346H7.692V28.807h84.615V90.346z" fill="#246a51" data-fill-palette-color="quaternary"/><rect x="42.002" y="66.065" width="26.488" height="7.775" fill="#246a51" data-fill-palette-color="quaternary"/><polygon points="15.521,66.064 41.988,55.549 41.988,55.527 42.002,55.533 42.002,47.181 41.988,47.187 41.988,47.165    15.521,36.65 15.515,45.014 31.487,51.357 15.515,57.701  " fill="#246a51" data-fill-palette-color="quaternary"/></g></svg></g></svg></g></svg></g></svg></g><g/></svg></g><defs/></svg><rect width="395.5199999999999" height="152.0067598727925" fill="none" stroke="none" visibility="hidden"/></g></svg>